<mxfile host="app.diagrams.net" modified="2023-09-19T09:24:37.231Z" agent="Mozilla/5.0 (Windows NT 10.0; Win64; x64) AppleWebKit/537.36 (KHTML, like Gecko) Chrome/116.0.0.0 Safari/537.36" etag="QkXBsloYvDMrFkg30VF-" version="21.7.5" type="device">
  <diagram name="Page-1" id="fNVzlAtFHjC7qsGa1IT-">
    <mxGraphModel dx="1134" dy="651" grid="1" gridSize="10" guides="1" tooltips="1" connect="1" arrows="1" fold="1" page="1" pageScale="1" pageWidth="827" pageHeight="1169" math="0" shadow="0">
      <root>
        <mxCell id="0" />
        <mxCell id="1" parent="0" />
        <mxCell id="0tlUgqdVWDa3HMJYL1NQ-5" style="edgeStyle=orthogonalEdgeStyle;rounded=0;orthogonalLoop=1;jettySize=auto;html=1;entryX=0.5;entryY=0;entryDx=0;entryDy=0;" parent="1" source="0tlUgqdVWDa3HMJYL1NQ-1" target="0tlUgqdVWDa3HMJYL1NQ-4" edge="1">
          <mxGeometry relative="1" as="geometry" />
        </mxCell>
        <mxCell id="0tlUgqdVWDa3HMJYL1NQ-1" value="" style="ellipse;whiteSpace=wrap;html=1;aspect=fixed;" parent="1" vertex="1">
          <mxGeometry x="399" y="30" width="30" height="30" as="geometry" />
        </mxCell>
        <mxCell id="0tlUgqdVWDa3HMJYL1NQ-7" value="" style="edgeStyle=orthogonalEdgeStyle;rounded=0;orthogonalLoop=1;jettySize=auto;html=1;" parent="1" source="0tlUgqdVWDa3HMJYL1NQ-4" target="0tlUgqdVWDa3HMJYL1NQ-6" edge="1">
          <mxGeometry relative="1" as="geometry" />
        </mxCell>
        <mxCell id="0tlUgqdVWDa3HMJYL1NQ-4" value="Oppretter 3 valutaer" style="rounded=1;whiteSpace=wrap;html=1;" parent="1" vertex="1">
          <mxGeometry x="354" y="110" width="120" height="60" as="geometry" />
        </mxCell>
        <mxCell id="0tlUgqdVWDa3HMJYL1NQ-9" value="" style="edgeStyle=orthogonalEdgeStyle;rounded=0;orthogonalLoop=1;jettySize=auto;html=1;" parent="1" source="0tlUgqdVWDa3HMJYL1NQ-6" target="0tlUgqdVWDa3HMJYL1NQ-8" edge="1">
          <mxGeometry relative="1" as="geometry" />
        </mxCell>
        <mxCell id="0tlUgqdVWDa3HMJYL1NQ-6" value="Brukeren velger valuta" style="rounded=1;whiteSpace=wrap;html=1;" parent="1" vertex="1">
          <mxGeometry x="354" y="200" width="120" height="60" as="geometry" />
        </mxCell>
        <mxCell id="0tlUgqdVWDa3HMJYL1NQ-12" style="edgeStyle=orthogonalEdgeStyle;rounded=0;orthogonalLoop=1;jettySize=auto;html=1;entryX=0.5;entryY=0;entryDx=0;entryDy=0;" parent="1" source="0tlUgqdVWDa3HMJYL1NQ-8" target="0tlUgqdVWDa3HMJYL1NQ-10" edge="1">
          <mxGeometry relative="1" as="geometry">
            <mxPoint x="300" y="320" as="targetPoint" />
            <Array as="points">
              <mxPoint x="332" y="300" />
            </Array>
          </mxGeometry>
        </mxCell>
        <mxCell id="0tlUgqdVWDa3HMJYL1NQ-13" style="edgeStyle=orthogonalEdgeStyle;rounded=0;orthogonalLoop=1;jettySize=auto;html=1;" parent="1" source="0tlUgqdVWDa3HMJYL1NQ-8" target="0tlUgqdVWDa3HMJYL1NQ-11" edge="1">
          <mxGeometry relative="1" as="geometry" />
        </mxCell>
        <mxCell id="0tlUgqdVWDa3HMJYL1NQ-17" style="edgeStyle=orthogonalEdgeStyle;rounded=0;orthogonalLoop=1;jettySize=auto;html=1;entryX=0.5;entryY=0;entryDx=0;entryDy=0;" parent="1" source="0tlUgqdVWDa3HMJYL1NQ-8" target="0tlUgqdVWDa3HMJYL1NQ-15" edge="1">
          <mxGeometry relative="1" as="geometry" />
        </mxCell>
        <mxCell id="0tlUgqdVWDa3HMJYL1NQ-18" style="edgeStyle=orthogonalEdgeStyle;rounded=0;orthogonalLoop=1;jettySize=auto;html=1;entryX=0.5;entryY=0;entryDx=0;entryDy=0;" parent="1" source="0tlUgqdVWDa3HMJYL1NQ-8" target="0tlUgqdVWDa3HMJYL1NQ-16" edge="1">
          <mxGeometry relative="1" as="geometry" />
        </mxCell>
        <mxCell id="0tlUgqdVWDa3HMJYL1NQ-8" value="" style="rhombus;whiteSpace=wrap;html=1;" parent="1" vertex="1">
          <mxGeometry x="384" y="280" width="60" height="40" as="geometry" />
        </mxCell>
        <mxCell id="0tlUgqdVWDa3HMJYL1NQ-22" style="edgeStyle=orthogonalEdgeStyle;rounded=0;orthogonalLoop=1;jettySize=auto;html=1;entryX=0.5;entryY=0;entryDx=0;entryDy=0;" parent="1" source="0tlUgqdVWDa3HMJYL1NQ-10" target="0tlUgqdVWDa3HMJYL1NQ-20" edge="1">
          <mxGeometry relative="1" as="geometry" />
        </mxCell>
        <mxCell id="0tlUgqdVWDa3HMJYL1NQ-10" value="Euro" style="rounded=1;whiteSpace=wrap;html=1;" parent="1" vertex="1">
          <mxGeometry x="280" y="340" width="104" height="40" as="geometry" />
        </mxCell>
        <mxCell id="0tlUgqdVWDa3HMJYL1NQ-23" style="edgeStyle=orthogonalEdgeStyle;rounded=0;orthogonalLoop=1;jettySize=auto;html=1;entryX=1;entryY=0.5;entryDx=0;entryDy=0;" parent="1" source="0tlUgqdVWDa3HMJYL1NQ-11" target="0tlUgqdVWDa3HMJYL1NQ-20" edge="1">
          <mxGeometry relative="1" as="geometry">
            <Array as="points">
              <mxPoint x="510" y="445" />
            </Array>
          </mxGeometry>
        </mxCell>
        <mxCell id="0tlUgqdVWDa3HMJYL1NQ-11" value="Svenske kroner" style="rounded=1;whiteSpace=wrap;html=1;" parent="1" vertex="1">
          <mxGeometry x="470" y="340" width="100" height="40" as="geometry" />
        </mxCell>
        <mxCell id="0tlUgqdVWDa3HMJYL1NQ-21" style="edgeStyle=orthogonalEdgeStyle;rounded=0;orthogonalLoop=1;jettySize=auto;html=1;entryX=0;entryY=0.5;entryDx=0;entryDy=0;" parent="1" source="0tlUgqdVWDa3HMJYL1NQ-15" target="0tlUgqdVWDa3HMJYL1NQ-20" edge="1">
          <mxGeometry relative="1" as="geometry">
            <Array as="points">
              <mxPoint x="150" y="445" />
            </Array>
          </mxGeometry>
        </mxCell>
        <mxCell id="0tlUgqdVWDa3HMJYL1NQ-15" value="Dollar" style="rounded=1;whiteSpace=wrap;html=1;" parent="1" vertex="1">
          <mxGeometry x="110" y="340" width="100" height="40" as="geometry" />
        </mxCell>
        <mxCell id="0tlUgqdVWDa3HMJYL1NQ-47" style="edgeStyle=orthogonalEdgeStyle;rounded=0;orthogonalLoop=1;jettySize=auto;html=1;entryX=1;entryY=0.5;entryDx=0;entryDy=0;" parent="1" target="0tlUgqdVWDa3HMJYL1NQ-46" edge="1">
          <mxGeometry relative="1" as="geometry">
            <mxPoint x="689" y="1010" as="targetPoint" />
            <mxPoint x="689.38" y="380" as="sourcePoint" />
            <Array as="points">
              <mxPoint x="689" y="995" />
            </Array>
          </mxGeometry>
        </mxCell>
        <mxCell id="0tlUgqdVWDa3HMJYL1NQ-16" value="Avbryt" style="rounded=1;whiteSpace=wrap;html=1;" parent="1" vertex="1">
          <mxGeometry x="640" y="340" width="100" height="40" as="geometry" />
        </mxCell>
        <mxCell id="0tlUgqdVWDa3HMJYL1NQ-25" value="" style="edgeStyle=orthogonalEdgeStyle;rounded=0;orthogonalLoop=1;jettySize=auto;html=1;" parent="1" source="0tlUgqdVWDa3HMJYL1NQ-20" target="0tlUgqdVWDa3HMJYL1NQ-24" edge="1">
          <mxGeometry relative="1" as="geometry" />
        </mxCell>
        <mxCell id="0tlUgqdVWDa3HMJYL1NQ-20" value="" style="rhombus;whiteSpace=wrap;html=1;" parent="1" vertex="1">
          <mxGeometry x="383" y="420" width="61" height="50" as="geometry" />
        </mxCell>
        <mxCell id="0tlUgqdVWDa3HMJYL1NQ-31" value="" style="edgeStyle=orthogonalEdgeStyle;rounded=0;orthogonalLoop=1;jettySize=auto;html=1;" parent="1" source="0tlUgqdVWDa3HMJYL1NQ-24" target="0tlUgqdVWDa3HMJYL1NQ-30" edge="1">
          <mxGeometry relative="1" as="geometry" />
        </mxCell>
        <mxCell id="0tlUgqdVWDa3HMJYL1NQ-24" value="Bruker velger fra eller til kroner" style="rounded=1;whiteSpace=wrap;html=1;" parent="1" vertex="1">
          <mxGeometry x="356.25" y="500" width="115.5" height="60" as="geometry" />
        </mxCell>
        <mxCell id="0tlUgqdVWDa3HMJYL1NQ-26" value="1" style="text;html=1;strokeColor=none;fillColor=none;align=center;verticalAlign=middle;whiteSpace=wrap;rounded=0;" parent="1" vertex="1">
          <mxGeometry x="160" y="270" width="60" height="30" as="geometry" />
        </mxCell>
        <mxCell id="0tlUgqdVWDa3HMJYL1NQ-27" value="2" style="text;html=1;strokeColor=none;fillColor=none;align=center;verticalAlign=middle;whiteSpace=wrap;rounded=0;" parent="1" vertex="1">
          <mxGeometry x="310" y="270" width="60" height="30" as="geometry" />
        </mxCell>
        <mxCell id="0tlUgqdVWDa3HMJYL1NQ-28" value="4" style="text;html=1;strokeColor=none;fillColor=none;align=center;verticalAlign=middle;whiteSpace=wrap;rounded=0;" parent="1" vertex="1">
          <mxGeometry x="620" y="270" width="60" height="30" as="geometry" />
        </mxCell>
        <mxCell id="0tlUgqdVWDa3HMJYL1NQ-29" value="3" style="text;html=1;strokeColor=none;fillColor=none;align=center;verticalAlign=middle;whiteSpace=wrap;rounded=0;" parent="1" vertex="1">
          <mxGeometry x="474" y="270" width="60" height="30" as="geometry" />
        </mxCell>
        <mxCell id="0tlUgqdVWDa3HMJYL1NQ-34" style="edgeStyle=orthogonalEdgeStyle;rounded=0;orthogonalLoop=1;jettySize=auto;html=1;entryX=0.5;entryY=0;entryDx=0;entryDy=0;" parent="1" source="0tlUgqdVWDa3HMJYL1NQ-30" target="0tlUgqdVWDa3HMJYL1NQ-32" edge="1">
          <mxGeometry relative="1" as="geometry" />
        </mxCell>
        <mxCell id="0tlUgqdVWDa3HMJYL1NQ-35" style="edgeStyle=orthogonalEdgeStyle;rounded=0;orthogonalLoop=1;jettySize=auto;html=1;" parent="1" source="0tlUgqdVWDa3HMJYL1NQ-30" target="0tlUgqdVWDa3HMJYL1NQ-33" edge="1">
          <mxGeometry relative="1" as="geometry" />
        </mxCell>
        <mxCell id="0tlUgqdVWDa3HMJYL1NQ-30" value="" style="rhombus;whiteSpace=wrap;html=1;" parent="1" vertex="1">
          <mxGeometry x="385.87" y="580" width="54.75" height="40" as="geometry" />
        </mxCell>
        <mxCell id="0tlUgqdVWDa3HMJYL1NQ-39" style="edgeStyle=orthogonalEdgeStyle;rounded=0;orthogonalLoop=1;jettySize=auto;html=1;entryX=0;entryY=0.5;entryDx=0;entryDy=0;" parent="1" source="0tlUgqdVWDa3HMJYL1NQ-32" target="0tlUgqdVWDa3HMJYL1NQ-38" edge="1">
          <mxGeometry relative="1" as="geometry">
            <Array as="points">
              <mxPoint x="304" y="730" />
            </Array>
          </mxGeometry>
        </mxCell>
        <mxCell id="0tlUgqdVWDa3HMJYL1NQ-32" value="Til kroner" style="rounded=1;whiteSpace=wrap;html=1;" parent="1" vertex="1">
          <mxGeometry x="254" y="650" width="100" height="40" as="geometry" />
        </mxCell>
        <mxCell id="0tlUgqdVWDa3HMJYL1NQ-40" style="edgeStyle=orthogonalEdgeStyle;rounded=0;orthogonalLoop=1;jettySize=auto;html=1;entryX=1;entryY=0.5;entryDx=0;entryDy=0;" parent="1" source="0tlUgqdVWDa3HMJYL1NQ-33" target="0tlUgqdVWDa3HMJYL1NQ-38" edge="1">
          <mxGeometry relative="1" as="geometry">
            <Array as="points">
              <mxPoint x="520" y="730" />
            </Array>
          </mxGeometry>
        </mxCell>
        <mxCell id="0tlUgqdVWDa3HMJYL1NQ-33" value="Fra kroner" style="rounded=1;whiteSpace=wrap;html=1;" parent="1" vertex="1">
          <mxGeometry x="465.5" y="650" width="100" height="40" as="geometry" />
        </mxCell>
        <mxCell id="0tlUgqdVWDa3HMJYL1NQ-36" value="1" style="text;html=1;strokeColor=none;fillColor=none;align=center;verticalAlign=middle;whiteSpace=wrap;rounded=0;" parent="1" vertex="1">
          <mxGeometry x="310" y="570" width="60" height="30" as="geometry" />
        </mxCell>
        <mxCell id="0tlUgqdVWDa3HMJYL1NQ-37" value="2" style="text;html=1;strokeColor=none;fillColor=none;align=center;verticalAlign=middle;whiteSpace=wrap;rounded=0;" parent="1" vertex="1">
          <mxGeometry x="465.5" y="570" width="60" height="30" as="geometry" />
        </mxCell>
        <mxCell id="0tlUgqdVWDa3HMJYL1NQ-42" value="" style="edgeStyle=orthogonalEdgeStyle;rounded=0;orthogonalLoop=1;jettySize=auto;html=1;" parent="1" source="0tlUgqdVWDa3HMJYL1NQ-38" target="0tlUgqdVWDa3HMJYL1NQ-41" edge="1">
          <mxGeometry relative="1" as="geometry" />
        </mxCell>
        <mxCell id="0tlUgqdVWDa3HMJYL1NQ-38" value="" style="rhombus;whiteSpace=wrap;html=1;" parent="1" vertex="1">
          <mxGeometry x="385.87" y="710" width="54.13" height="40" as="geometry" />
        </mxCell>
        <mxCell id="0tlUgqdVWDa3HMJYL1NQ-44" value="" style="edgeStyle=orthogonalEdgeStyle;rounded=0;orthogonalLoop=1;jettySize=auto;html=1;" parent="1" source="0tlUgqdVWDa3HMJYL1NQ-41" target="0tlUgqdVWDa3HMJYL1NQ-43" edge="1">
          <mxGeometry relative="1" as="geometry" />
        </mxCell>
        <mxCell id="0tlUgqdVWDa3HMJYL1NQ-41" value="Bruker skriver inn mengden som skal omgjøres" style="rounded=1;whiteSpace=wrap;html=1;" parent="1" vertex="1">
          <mxGeometry x="361.62" y="790" width="103.25" height="50" as="geometry" />
        </mxCell>
        <mxCell id="0tlUgqdVWDa3HMJYL1NQ-45" style="edgeStyle=orthogonalEdgeStyle;rounded=0;orthogonalLoop=1;jettySize=auto;html=1;entryX=0;entryY=0.5;entryDx=0;entryDy=0;" parent="1" source="0tlUgqdVWDa3HMJYL1NQ-43" target="0tlUgqdVWDa3HMJYL1NQ-6" edge="1">
          <mxGeometry relative="1" as="geometry">
            <mxPoint x="320" y="230" as="targetPoint" />
            <mxPoint x="340" y="910" as="sourcePoint" />
            <Array as="points">
              <mxPoint x="80" y="911" />
              <mxPoint x="80" y="230" />
            </Array>
          </mxGeometry>
        </mxCell>
        <mxCell id="0tlUgqdVWDa3HMJYL1NQ-43" value="Gjør om mengden mht valgt valuta og til/fra kroner" style="rounded=1;whiteSpace=wrap;html=1;" parent="1" vertex="1">
          <mxGeometry x="344.93" y="880" width="136" height="60" as="geometry" />
        </mxCell>
        <mxCell id="0tlUgqdVWDa3HMJYL1NQ-46" value="" style="ellipse;whiteSpace=wrap;html=1;aspect=fixed;" parent="1" vertex="1">
          <mxGeometry x="397.93" y="980" width="30" height="30" as="geometry" />
        </mxCell>
      </root>
    </mxGraphModel>
  </diagram>
</mxfile>
